<svg xmlns="http://www.w3.org/2000/svg" xmlns:xlink="http://www.w3.org/1999/xlink" >

<symbol id="all-timers" width="53" height="54" viewBox="0 0 53 54" fill="none" xmlns="http://www.w3.org/2000/svg">
<g clip-path="url(#clip0_178_4)">
<path fill-rule="evenodd" clip-rule="evenodd" d="M21.75 0C21.5511 0 21.3603 0.0790176 21.2197 0.21967C21.079 0.360322 21 0.551088 21 0.75C21 0.948912 21.079 1.13968 21.2197 1.28033C21.3603 1.42098 21.5511 1.5 21.75 1.5H22.5V3.105C20.4574 3.4001 18.5471 4.29051 17.0076 5.66501C15.4681 7.0395 14.3677 8.83714 13.8439 10.8334C13.3202 12.8296 13.3962 14.9359 14.0625 16.8892C14.7288 18.8424 15.9559 20.5561 17.5905 21.816L16.6875 22.719C16.5467 22.8596 16.4675 23.0504 16.4673 23.2495C16.4672 23.4485 16.5461 23.6394 16.6867 23.7803C16.8274 23.9211 17.0182 24.0003 17.2172 24.0004C17.4162 24.0006 17.6072 23.9216 17.748 23.781L18.867 22.662C20.4345 23.5419 22.2024 24.0027 24 24C25.7976 24.0027 27.5655 23.5419 29.133 22.662L30.252 23.781C30.3928 23.9216 30.5838 24.0006 30.7828 24.0004C30.9818 24.0003 31.1726 23.9211 31.3132 23.7803C31.4539 23.6394 31.5328 23.4485 31.5327 23.2495C31.5325 23.0504 31.4533 22.8596 31.3125 22.719L30.411 21.816C32.0456 20.556 33.2727 18.8422 33.9389 16.8888C34.6052 14.9354 34.6811 12.829 34.1571 10.8328C33.6332 8.83652 32.5326 7.0389 30.9929 5.6645C29.4532 4.2901 27.5427 3.39986 25.5 3.105V1.5H26.25C26.4489 1.5 26.6397 1.42098 26.7803 1.28033C26.921 1.13968 27 0.948912 27 0.75C27 0.551088 26.921 0.360322 26.7803 0.21967C26.6397 0.0790176 26.4489 0 26.25 0L21.75 0ZM23.307 4.527C23.7683 4.49192 24.2317 4.49192 24.693 4.527C27.013 4.70617 29.1734 5.77694 30.721 7.51463C32.2686 9.25231 33.083 11.5219 32.9933 13.847C32.9037 16.1722 31.9169 18.3723 30.2402 19.9857C28.5634 21.599 26.3269 22.5003 24 22.5003C21.6731 22.5003 19.4366 21.599 17.7598 19.9857C16.0831 18.3723 15.0963 16.1722 15.0067 13.847C14.917 11.5219 15.7314 9.25231 17.279 7.51463C18.8266 5.77694 20.987 4.70617 23.307 4.527ZM24.75 8.25C24.75 8.05109 24.671 7.86032 24.5303 7.71967C24.3897 7.57902 24.1989 7.5 24 7.5C23.8011 7.5 23.6103 7.57902 23.4697 7.71967C23.329 7.86032 23.25 8.05109 23.25 8.25V13.293L21.1065 16.863C21.0041 17.0337 20.9736 17.238 21.0219 17.4312C21.0701 17.6243 21.1931 17.7903 21.3637 17.8927C21.5344 17.9952 21.7388 18.0256 21.9319 17.9774C22.125 17.9291 22.2911 17.8062 22.3935 17.6355L24.6435 13.8855C24.7132 13.769 24.75 13.6358 24.75 13.5V8.25ZM12 5.25C12 6.3795 12.4995 7.3935 13.29 8.0805C14.4476 5.80042 16.3004 3.94762 18.5805 2.79C18.0793 2.2133 17.4139 1.80344 16.6734 1.6153C15.9329 1.42716 15.1526 1.46971 14.4369 1.73725C13.7212 2.00479 13.1043 2.48456 12.6688 3.11234C12.2333 3.74012 12 4.48595 12 5.25ZM32.25 1.5C31.1205 1.5 30.1065 1.9995 29.4195 2.79C31.6996 3.94762 33.5524 5.80042 34.71 8.0805C35.2867 7.57932 35.6966 6.91393 35.8847 6.17341C36.0728 5.43289 36.0303 4.65256 35.7628 3.93689C35.4952 3.22121 35.0154 2.60433 34.3877 2.16883C33.7599 1.73332 33.014 1.49997 32.25 1.5Z" fill="black"/>
</g>
<g clip-path="url(#clip1_178_4)">
<path fill-rule="evenodd" clip-rule="evenodd" d="M38.75 30C38.5511 30 38.3603 30.079 38.2197 30.2197C38.079 30.3603 38 30.5511 38 30.75C38 30.9489 38.079 31.1397 38.2197 31.2803C38.3603 31.421 38.5511 31.5 38.75 31.5H39.5V33.105C37.4574 33.4001 35.5471 34.2905 34.0076 35.665C32.4681 37.0395 31.3677 38.8371 30.8439 40.8334C30.3202 42.8296 30.3962 44.9359 31.0625 46.8892C31.7288 48.8424 32.9559 50.5561 34.5905 51.816L33.6875 52.719C33.5467 52.8596 33.4675 53.0504 33.4673 53.2495C33.4672 53.4485 33.5461 53.6394 33.6867 53.7803C33.8274 53.9211 34.0182 54.0003 34.2172 54.0004C34.4162 54.0006 34.6072 53.9216 34.748 53.781L35.867 52.662C37.4345 53.5419 39.2024 54.0027 41 54C42.7976 54.0027 44.5655 53.5419 46.133 52.662L47.252 53.781C47.3928 53.9216 47.5838 54.0006 47.7828 54.0004C47.9818 54.0003 48.1726 53.9211 48.3132 53.7803C48.4539 53.6394 48.5328 53.4485 48.5327 53.2495C48.5325 53.0504 48.4533 52.8596 48.3125 52.719L47.411 51.816C49.0456 50.556 50.2727 48.8422 50.9389 46.8888C51.6052 44.9354 51.6811 42.829 51.1571 40.8328C50.6332 38.8365 49.5326 37.0389 47.9929 35.6645C46.4532 34.2901 44.5427 33.3999 42.5 33.105V31.5H43.25C43.4489 31.5 43.6397 31.421 43.7803 31.2803C43.921 31.1397 44 30.9489 44 30.75C44 30.5511 43.921 30.3603 43.7803 30.2197C43.6397 30.079 43.4489 30 43.25 30H38.75ZM40.307 34.527C40.7683 34.4919 41.2317 34.4919 41.693 34.527C44.013 34.7062 46.1734 35.7769 47.721 37.5146C49.2686 39.2523 50.083 41.5219 49.9933 43.847C49.9037 46.1722 48.9169 48.3723 47.2402 49.9857C45.5634 51.599 43.3269 52.5003 41 52.5003C38.6731 52.5003 36.4366 51.599 34.7598 49.9857C33.0831 48.3723 32.0963 46.1722 32.0067 43.847C31.917 41.5219 32.7314 39.2523 34.279 37.5146C35.8266 35.7769 37.987 34.7062 40.307 34.527ZM41.75 38.25C41.75 38.0511 41.671 37.8603 41.5303 37.7197C41.3897 37.579 41.1989 37.5 41 37.5C40.8011 37.5 40.6103 37.579 40.4697 37.7197C40.329 37.8603 40.25 38.0511 40.25 38.25V43.293L38.1065 46.863C38.0041 47.0337 37.9736 47.238 38.0219 47.4312C38.0701 47.6243 38.1931 47.7903 38.3637 47.8927C38.5344 47.9952 38.7388 48.0256 38.9319 47.9774C39.125 47.9291 39.2911 47.8062 39.3935 47.6355L41.6435 43.8855C41.7132 43.769 41.75 43.6358 41.75 43.5V38.25ZM29 35.25C29 36.3795 29.4995 37.3935 30.29 38.0805C31.4476 35.8004 33.3004 33.9476 35.5805 32.79C35.0793 32.2133 34.4139 31.8034 33.6734 31.6153C32.9329 31.4272 32.1526 31.4697 31.4369 31.7372C30.7212 32.0048 30.1043 32.4846 29.6688 33.1123C29.2333 33.7401 29 34.486 29 35.25ZM49.25 31.5C48.1205 31.5 47.1065 31.9995 46.4195 32.79C48.6996 33.9476 50.5524 35.8004 51.71 38.0805C52.2867 37.5793 52.6966 36.9139 52.8847 36.1734C53.0728 35.4329 53.0303 34.6526 52.7628 33.9369C52.4952 33.2212 52.0154 32.6043 51.3877 32.1688C50.7599 31.7333 50.014 31.5 49.25 31.5Z" fill="black"/>
</g>
<g clip-path="url(#clip2_178_4)">
<path fill-rule="evenodd" clip-rule="evenodd" d="M9.75 30C9.55109 30 9.36032 30.079 9.21967 30.2197C9.07902 30.3603 9 30.5511 9 30.75C9 30.9489 9.07902 31.1397 9.21967 31.2803C9.36032 31.421 9.55109 31.5 9.75 31.5H10.5V33.105C8.45741 33.4001 6.54705 34.2905 5.00757 35.665C3.46808 37.0395 2.36772 38.8371 1.84394 40.8334C1.32016 42.8296 1.39618 44.9359 2.06251 46.8892C2.72884 48.8424 3.95593 50.5561 5.5905 51.816L4.6875 52.719C4.54667 52.8596 4.46747 53.0504 4.46733 53.2495C4.46719 53.4485 4.54612 53.6394 4.68675 53.7803C4.82738 53.9211 5.0182 54.0003 5.21722 54.0004C5.41624 54.0006 5.60717 53.9216 5.748 53.781L6.867 52.662C8.43452 53.5419 10.2024 54.0027 12 54C13.7976 54.0027 15.5655 53.5419 17.133 52.662L18.252 53.781C18.3928 53.9216 18.5838 54.0006 18.7828 54.0004C18.9818 54.0003 19.1726 53.9211 19.3132 53.7803C19.4539 53.6394 19.5328 53.4485 19.5327 53.2495C19.5325 53.0504 19.4533 52.8596 19.3125 52.719L18.411 51.816C20.0456 50.556 21.2727 48.8422 21.9389 46.8888C22.6052 44.9354 22.6811 42.829 22.1571 40.8328C21.6332 38.8365 20.5326 37.0389 18.9929 35.6645C17.4532 34.2901 15.5427 33.3999 13.5 33.105V31.5H14.25C14.4489 31.5 14.6397 31.421 14.7803 31.2803C14.921 31.1397 15 30.9489 15 30.75C15 30.5511 14.921 30.3603 14.7803 30.2197C14.6397 30.079 14.4489 30 14.25 30H9.75ZM11.307 34.527C11.7683 34.4919 12.2317 34.4919 12.693 34.527C15.013 34.7062 17.1734 35.7769 18.721 37.5146C20.2686 39.2523 21.083 41.5219 20.9933 43.847C20.9037 46.1722 19.9169 48.3723 18.2402 49.9857C16.5634 51.599 14.3269 52.5003 12 52.5003C9.67309 52.5003 7.43661 51.599 5.75984 49.9857C4.08307 48.3723 3.09634 46.1722 3.00668 43.847C2.91703 41.5219 3.73143 39.2523 5.27899 37.5146C6.82656 35.7769 8.987 34.7062 11.307 34.527ZM12.75 38.25C12.75 38.0511 12.671 37.8603 12.5303 37.7197C12.3897 37.579 12.1989 37.5 12 37.5C11.8011 37.5 11.6103 37.579 11.4697 37.7197C11.329 37.8603 11.25 38.0511 11.25 38.25V43.293L9.1065 46.863C9.00406 47.0337 8.97361 47.238 9.02186 47.4312C9.0701 47.6243 9.19308 47.7903 9.36375 47.8927C9.53442 47.9952 9.73879 48.0256 9.9319 47.9774C10.125 47.9291 10.2911 47.8062 10.3935 47.6355L12.6435 43.8855C12.7132 43.769 12.75 43.6358 12.75 43.5V38.25ZM3.79931e-09 35.25C3.79931e-09 36.3795 0.4995 37.3935 1.29 38.0805C2.44762 35.8004 4.30042 33.9476 6.5805 32.79C6.07932 32.2133 5.41393 31.8034 4.67341 31.6153C3.93289 31.4272 3.15256 31.4697 2.43689 31.7372C1.72121 32.0048 1.10433 32.4846 0.668826 33.1123C0.233319 33.7401 -3.43805e-05 34.486 3.79931e-09 35.25ZM20.25 31.5C19.1205 31.5 18.1065 31.9995 17.4195 32.79C19.6996 33.9476 21.5524 35.8004 22.71 38.0805C23.2867 37.5793 23.6966 36.9139 23.8847 36.1734C24.0728 35.4329 24.0303 34.6526 23.7628 33.9369C23.4952 33.2212 23.0154 32.6043 22.3877 32.1688C21.7599 31.7333 21.014 31.5 20.25 31.5Z" fill="black"/>
</g>
<defs>
<clipPath id="clip0_178_4">
<rect width="24" height="24" fill="white" transform="translate(12)"/>
</clipPath>
<clipPath id="clip1_178_4">
<rect width="24" height="24" fill="white" transform="translate(29 30)"/>
</clipPath>
<clipPath id="clip2_178_4">
<rect width="24" height="24" fill="white" transform="translate(0 30)"/>
</clipPath>
</defs>
</symbol>

<symbol id="caret-right-fill" width="70" height="70" viewBox="0 0 70 70" fill="none" xmlns="http://www.w3.org/2000/svg">
<path d="M53.1125 38.2943L29.1288 59.2768C26.3025 61.7531 21.875 59.7406 21.875 55.9824V14.0174C21.8743 13.1764 22.116 12.3529 22.5712 11.6457C23.0265 10.9385 23.6759 10.3775 24.4418 10.0298C25.2077 9.68222 26.0575 9.56272 26.8895 9.68567C27.7216 9.80861 28.5005 10.1688 29.1331 10.7231L53.1081 31.7056C53.578 32.1162 53.9547 32.6226 54.2127 33.1908C54.4708 33.759 54.6043 34.3759 54.6043 34.9999C54.6043 35.624 54.4708 36.2408 54.2127 36.809C53.9547 37.3772 53.578 37.8837 53.1081 38.2943H53.1125Z" fill="black"/>
</symbol>

<symbol id="plus" width="92" height="92" viewBox="0 0 92 92" fill="none" xmlns="http://www.w3.org/2000/svg">
<path fill-rule="evenodd" clip-rule="evenodd" d="M46 23C46.7625 23 47.4938 23.3029 48.0329 23.8421C48.5721 24.3812 48.875 25.1125 48.875 25.875V43.125H66.125C66.8875 43.125 67.6188 43.4279 68.1579 43.9671C68.6971 44.5062 69 45.2375 69 46C69 46.7625 68.6971 47.4938 68.1579 48.0329C67.6188 48.5721 66.8875 48.875 66.125 48.875H48.875V66.125C48.875 66.8875 48.5721 67.6188 48.0329 68.1579C47.4938 68.6971 46.7625 69 46 69C45.2375 69 44.5062 68.6971 43.9671 68.1579C43.4279 67.6188 43.125 66.8875 43.125 66.125V48.875H25.875C25.1125 48.875 24.3812 48.5721 23.8421 48.0329C23.3029 47.4938 23 46.7625 23 46C23 45.2375 23.3029 44.5062 23.8421 43.9671C24.3812 43.4279 25.1125 43.125 25.875 43.125H43.125V25.875C43.125 25.1125 43.4279 24.3812 43.9671 23.8421C44.5062 23.3029 45.2375 23 46 23V23Z" fill="black"/>
</symbol>

<symbol id="check-circle" xmlns="http://www.w3.org/2000/svg" width="16" height="16" fill="currentColor" viewBox="0 0 16 16">
  <path d="M8 15A7 7 0 1 1 8 1a7 7 0 0 1 0 14zm0 1A8 8 0 1 0 8 0a8 8 0 0 0 0 16z"/>
  <path d="M10.97 4.97a.235.235 0 0 0-.02.022L7.477 9.417 5.384 7.323a.75.75 0 0 0-1.06 1.06L6.97 11.03a.75.75 0 0 0 1.079-.02l3.992-4.99a.75.75 0 0 0-1.071-1.05z"/>
</symbol>

<symbol id="plus-circle" xmlns="http://www.w3.org/2000/svg" width="16" height="16" fill="currentColor" viewBox="0 0 16 16">
  <path d="M8 15A7 7 0 1 1 8 1a7 7 0 0 1 0 14zm0 1A8 8 0 1 0 8 0a8 8 0 0 0 0 16z"/>
  <path d="M8 4a.5.5 0 0 1 .5.5v3h3a.5.5 0 0 1 0 1h-3v3a.5.5 0 0 1-1 0v-3h-3a.5.5 0 0 1 0-1h3v-3A.5.5 0 0 1 8 4z"/>
</symbol>

<symbol id="x-lg" xmlns="http://www.w3.org/2000/svg" width="16" height="16" fill="currentColor" viewBox="0 0 16 16">
  <path d="M2.146 2.854a.5.5 0 1 1 .708-.708L8 7.293l5.146-5.147a.5.5 0 0 1 .708.708L8.707 8l5.147 5.146a.5.5 0 0 1-.708.708L8 8.707l-5.146 5.147a.5.5 0 0 1-.708-.708L7.293 8 2.146 2.854Z"/>
</symbol>

<symbol id="check-lg" xmlns="http://www.w3.org/2000/svg" width="16" height="16" fill="currentColor" viewBox="0 0 16 16">
  <path d="M12.736 3.97a.733.733 0 0 1 1.047 0c.286.289.29.756.01 1.05L7.88 12.01a.733.733 0 0 1-1.065.02L3.217 8.384a.757.757 0 0 1 0-1.06.733.733 0 0 1 1.047 0l3.052 3.093 5.4-6.425a.247.247 0 0 1 .02-.022Z"/>
</symbol>

<symbol id="pause-fill" xmlns="http://www.w3.org/2000/svg" width="16" height="16" fill="currentColor" viewBox="0 0 16 16">
  <path d="M5.5 3.5A1.5 1.5 0 0 1 7 5v6a1.5 1.5 0 0 1-3 0V5a1.5 1.5 0 0 1 1.5-1.5zm5 0A1.5 1.5 0 0 1 12 5v6a1.5 1.5 0 0 1-3 0V5a1.5 1.5 0 0 1 1.5-1.5z"/>
</symbol>

<symbol id="arrow-clockwise" xmlns="http://www.w3.org/2000/svg" width="16" height="16" fill="currentColor" viewBox="0 0 16 16">
  <path fill-rule="evenodd" d="M8 3a5 5 0 1 0 4.546 2.914.5.5 0 0 1 .908-.417A6 6 0 1 1 8 2v1z"/>
  <path d="M8 4.466V.534a.25.25 0 0 1 .41-.192l2.36 1.966c.12.1.12.284 0 .384L8.41 4.658A.25.25 0 0 1 8 4.466z"/>
</symbol>

<symbol id="bar-chart-line-fill" xmlns="http://www.w3.org/2000/svg" width="16" height="16" fill="currentColor" viewBox="0 0 16 16">
  <path d="M11 2a1 1 0 0 1 1-1h2a1 1 0 0 1 1 1v12h.5a.5.5 0 0 1 0 1H.5a.5.5 0 0 1 0-1H1v-3a1 1 0 0 1 1-1h2a1 1 0 0 1 1 1v3h1V7a1 1 0 0 1 1-1h2a1 1 0 0 1 1 1v7h1V2z"/>
</symbol>

<symbol id="pen-fill" xmlns="http://www.w3.org/2000/svg" width="16" height="16" fill="currentColor" viewBox="0 0 16 16">
  <path d="m13.498.795.149-.149a1.207 1.207 0 1 1 1.707 1.708l-.149.148a1.5 1.5 0 0 1-.059 2.059L4.854 14.854a.5.5 0 0 1-.233.131l-4 1a.5.5 0 0 1-.606-.606l1-4a.5.5 0 0 1 .131-.232l9.642-9.642a.5.5 0 0 0-.642.056L6.854 4.854a.5.5 0 1 1-.708-.708L9.44.854A1.5 1.5 0 0 1 11.5.796a1.5 1.5 0 0 1 1.998-.001z"/>
</symbol>

</svg>